<svg xmlns="http://www.w3.org/2000/svg" xmlns:xlink="http://www.w3.org/1999/xlink" version="1.1" x="0px" y="0px" viewBox="0 0 100 125" style="enable-background:new 0 0 100 100;" xml:space="preserve"><g><path d="M50,10.2c-16.2,0-29.3,13.2-29.3,29.3c0,4.2,0.9,8.2,2.6,12c7.3,16,21.4,33,25.5,37.8c0.3,0.4,0.8,0.6,1.2,0.6   c0.5,0,0.9-0.2,1.2-0.6c4.1-4.8,18.2-21.8,25.5-37.8c1.7-3.7,2.6-7.8,2.6-12C79.3,23.3,66.2,10.2,50,10.2z M50,54.7   c-8.4,0-15.2-6.8-15.2-15.2c0-8.4,6.8-15.2,15.2-15.2s15.2,6.8,15.2,15.2C65.2,47.9,58.4,54.7,50,54.7z"/></g><text x="0" y="115" fill="#000000" font-size="5px" font-weight="bold" font-family="'Helvetica Neue', Helvetica, Arial-Unicode, Arial, Sans-serif">Created by Shiva</text><text x="0" y="120" fill="#000000" font-size="5px" font-weight="bold" font-family="'Helvetica Neue', Helvetica, Arial-Unicode, Arial, Sans-serif">from the Noun Project</text></svg>
